<?xml version="1.0" encoding="UTF-8" standalone="no"?>
<!-- Created with Inkscape (http://www.inkscape.org/) -->

<svg
   version="1.1"
   id="svg1"
   width="1365.225"
   height="1290.4185"
   viewBox="0 0 1365.225 1290.4185"
   sodipodi:docname="Gemini_Generated_Image_cskzz6cskzz6cskz.png"
   xmlns:inkscape="http://www.inkscape.org/namespaces/inkscape"
   xmlns:sodipodi="http://sodipodi.sourceforge.net/DTD/sodipodi-0.dtd"
   xmlns="http://www.w3.org/2000/svg"
   xmlns:svg="http://www.w3.org/2000/svg">
  <defs
     id="defs1" />
  <sodipodi:namedview
     id="namedview1"
     pagecolor="#ffffff"
     bordercolor="#000000"
     borderopacity="0.25"
     inkscape:showpageshadow="2"
     inkscape:pageopacity="0.0"
     inkscape:pagecheckerboard="0"
     inkscape:deskcolor="#d1d1d1"
     showgrid="false">
    <inkscape:page
       x="0"
       y="0"
       width="1365.225"
       height="1290.4185"
       id="page2"
       margin="0"
       bleed="0" />
  </sodipodi:namedview>
  <g
     inkscape:groupmode="layer"
     inkscape:label="Image"
     id="g1"
     transform="translate(-0.05410989,-37.457428)">
    <path
       style="fill:#000000"
       d="m 71.912748,1326.7432 c -24.51686,-3.0178 -36.43785,-8.2379 -50,-21.8946 -9.728,-9.7959 -14.8158303,-18.4462 -18.9894903,-32.2859 -2.20581004,-7.3143 -2.36498004,-27.9132 -2.70283004,-349.772 -0.39597,-377.22544 -0.79788,-357.77585 7.85698004,-380.21865 2.2898503,-5.93779 8.2739203,-16.94318 13.2979103,-24.45642 25.04874,-37.45962 67.45049,-59.0731 110.114342,-56.12868 25.86989,1.7854 48.78865,10.12629 68.13217,24.79554 15.00179,11.37669 25.04757,22.93628 90.38765,104.00823 12.70717,15.76667 34.26946,42.46667 47.9162,59.33333 92.23481,113.99746 95.7259,118.56529 105.21532,137.66606 17.59574,35.41758 22.34544,75.87269 13.26702,113.00059 -6.22485,25.45768 -18.83922,51.19902 -89.18785,182 -5.32451,9.9 -19.72245,37.2 -31.99541,60.6667 -57.93436,110.774 -62.70087,118.8428 -80.84009,136.847 -26.52765,26.3302 -54.49984,38.6406 -101.1386,44.5104 -20.01278,2.5188 -67.407532,3.6425 -81.333322,1.9284 z M 1109.2493,1326.618 c -31.2399,-2.1053 -52.1969,-7.724 -79.6937,-21.3662 -25.2629,-12.5338 -36.5948,-21.701 -61.5525,-49.7944 -13.9947,-15.7532 -62.6557,-75.0227 -127.6693,-155.5024 -8.6649,-10.7262 -24.7208,-30.5262 -35.6796,-44 -10.9589,-13.4737 -24.7271,-30.4976 -30.5961,-37.831 -5.869,-7.3333 -11.0356,-13.6333 -11.4812,-14 -0.4457,-0.3666 -9.5143,-11.46664 -20.1526,-24.66664 -10.6382,-13.19999 -25.9053,-32.05391 -33.9269,-41.89759 -8.0216,-9.84367 -17.5397,-21.54367 -21.1514,-26 -3.6118,-4.45632 -12.8916,-15.9024 -20.622,-25.43573 -7.7304,-9.53334 -21.87532,-26.98494 -31.43324,-38.78134 -9.55793,-11.7964 -30.30913,-37.2964 -46.11379,-56.66666 -15.80466,-19.37026 -35.03591,-43.01866 -42.7361,-52.55199 -7.70019,-9.53334 -20.54006,-25.43334 -28.53304,-35.33334 -7.99299,-9.89999 -25.06174,-30.88689 -37.93057,-46.63753 -12.86883,-15.75065 -26.09787,-32.02047 -29.39787,-36.15516 -3.3,-4.13469 -10.57878,-13.1478 -16.17507,-20.02912 -5.5963,-6.88133 -16.0963,-19.80258 -23.33334,-28.71389 -31.537,-38.83298 -63.43869,-77.97513 -75.23534,-92.31089 C 276.13676,406.39568 229.81708,348.49377 222.82341,337.6732 c -13.08355,-20.24279 -25.40448,-48.68963 -30.8265,-71.1729 -5.32496,-22.08084 -6.87398,-36.95263 -7.67989,-73.73319 -1.17125,-53.45388 1.9409,-76.13303 13.80185,-100.578096 5.11465,-10.54113 7.99653,-14.483802 17.62426,-24.111525 14.33819,-14.338193 29.4067,-22.435299 50.1696,-26.958778 12.33643,-2.687657 16.92219,-2.902508 61.33333,-2.873572 43.44075,0.0283 49.47893,0.305278 63.57027,2.915985 57.69759,10.68965 103.05115,39.652077 146.61882,93.629626 6.80692,8.43333 21.58575,26.73333 32.84184,40.66666 11.2561,13.93334 34.43688,42.73333 51.51285,64 30.43977,37.91014 61.16866,76.11319 114.75486,142.66666 14.7612,18.33333 38.1802,47.43333 52.0421,64.66666 13.8619,17.23333 32.8649,40.76346 42.2288,52.28918 9.3639,11.52571 25.6261,31.62571 36.1382,44.66666 40.6707,50.45474 47.6213,59.06635 64.8739,80.37748 9.7957,12.1 28.19,34.9 40.8763,50.66667 12.6863,15.76666 32.7624,40.66666 44.6135,55.33333 11.8511,14.66666 28.5013,35.36666 37.0004,45.99999 37.6154,47.06082 60.5534,71.27633 81.3021,85.83005 14.0678,9.86753 38.3325,21.86298 62.8206,31.05579 41.3726,15.53132 67.7284,31.13131 91.9104,54.4019 41.1518,39.60066 64.8818,85.95402 72.9087,142.41692 2.7298,19.2021 2.6813,76.6061 -0.08,95.2055 -6.6597,44.8504 -28.2757,82.5255 -62.3545,108.6791 -26.5434,20.3706 -55.1844,30.3836 -94.6095,33.0758 -22.2554,1.5198 -73.2102,1.4298 -96.966,-0.1711 z m 123.2094,-535.04337 c -12.1547,-2.78848 -27.2757,-9.51886 -37.4676,-16.67676 -9.8679,-6.93042 -21.2465,-19.46508 -53.9586,-59.44049 -22.4877,-27.48079 -24.7062,-30.20357 -56.4531,-69.28532 -11.7333,-14.44424 -26.1333,-32.15901 -32,-39.36617 -57.0239,-70.0534 -67.1059,-82.72176 -73.2632,-92.05793 -18.7408,-28.41603 -27.1429,-59.07021 -25.5705,-93.29056 1.3508,-29.39897 6.772,-47.62232 24.5768,-82.61545 6.8885,-13.53849 15.0793,-29.13849 18.2017,-34.66666 3.1225,-5.52817 12.7464,-23.25122 21.3864,-39.38455 8.64,-16.13333 17.0988,-31.85761 18.7973,-34.94285 1.6985,-3.08524 10.0919,-18.68523 18.652,-34.66666 8.5601,-15.98143 19.438,-36.25715 24.173,-45.05715 14.2455,-26.47492 24.7665,-41.12315 41.6643,-58.008872 38.1065,-38.079318 80.3379,-54.65778 139.2332,-54.65778 35.0618,0 55.3474,6.360864 75.3697,23.633378 7.8954,6.811087 17.1408,20.572333 21.8015,32.450534 8.095,20.63073 7.6468,2.069429 7.6199,315.52651 -0.027,311.83105 0.3,297.91434 -7.451,317.28884 -5.7493,14.37106 -12.4436,24.46306 -23.8011,35.88172 -12.5263,12.59369 -25.375,20.64478 -41.7933,26.188 -10.2962,3.47623 -13.8397,3.97678 -31.5967,4.46328 -14.1205,0.38687 -22.3873,2.8e-4 -28.1207,-1.31506 z"
       id="path1" />
  </g>
</svg>
