<svg xmlns="http://www.w3.org/2000/svg" version="1.1" xmlns:xlink="http://www.w3.org/1999/xlink" width="1365.225" height="1365.225"><svg version="1.1" id="SvgjsSvg1013" width="1365.225" height="1365.225" viewBox="0 0 1365.225 1365.225" sodipodi:docname="Gemini_Generated_Image_cskzz6cskzz6cskz.png" inkscape:export-filename="nexcn.svg" inkscape:export-xdpi="96" inkscape:export-ydpi="96" xmlns:inkscape="http://www.inkscape.org/namespaces/inkscape" xmlns:sodipodi="http://sodipodi.sourceforge.net/DTD/sodipodi-0.dtd" xmlns="http://www.w3.org/2000/svg" xmlns:svg="http://www.w3.org/2000/svg">
  <defs id="SvgjsDefs1012"></defs>
  <sodipodi:namedview id="SvgjsSodipodi:namedview1011" pagecolor="#ffffff" bordercolor="#000000" borderopacity="0.25" inkscape:showpageshadow="2" inkscape:pageopacity="0.0" inkscape:pagecheckerboard="0" inkscape:deskcolor="#d1d1d1" showgrid="false">
    <inkscape:page x="0" y="0" width="1365.225" height="1365.225" id="SvgjsInkscape:page1010" margin="0" bleed="0"></inkscape:page>
  </sodipodi:namedview>
  <g inkscape:groupmode="layer" inkscape:label="Image" id="SvgjsG1009" transform="translate(-0.05410989,-37.457428)">
    <circle style="fill:#000000;stroke-width:1.00157" id="SvgjsCircle1008" cx="682.66663" cy="720.06995" r="682.61249"></circle>
    <path style="fill:#ffffff;stroke-width:0.593195" d="m 320.37079,1102.1332 c -14.5432,-1.7901 -21.6147,-4.8867 -29.6596,-12.9878 -5.7707,-5.8108 -8.7887,-10.9421 -11.2645,-19.1518 -1.3085,-4.3387 -1.403,-16.5579 -1.6033,-207.48281 -0.2349,-223.76799 -0.4733,-212.23061 4.6606,-225.54356 1.3585,-3.52226 4.9082,-10.05059 7.8884,-14.50741 14.8587,-22.22084 40.0112,-35.04183 65.3191,-33.29522 15.3459,1.05909 28.9412,6.00686 40.4156,14.70858 8.8991,6.7486 14.8581,13.60567 53.6175,61.6971 7.5378,9.35269 20.3284,25.19099 28.4236,35.19621 54.7131,67.62263 56.784,70.33224 62.4132,81.66272 10.4377,21.00951 13.2552,45.00725 7.8699,67.03131 -3.6926,15.10135 -11.1754,30.37098 -52.9058,107.96143 -3.1584,5.87264 -11.6991,22.06675 -18.9795,35.98714 -34.3663,65.71051 -37.1938,70.49691 -47.9538,81.17681 -15.7361,15.619 -32.329,22.9214 -59.9949,26.4034 -11.8715,1.4941 -39.9858,2.1607 -48.2465,1.1439 z m 615.3421,-0.075 c -18.5311,-1.249 -30.9627,-4.582 -47.2738,-12.6743 -14.9857,-7.435 -21.7077,-12.8729 -36.5125,-29.5378 -8.3016,-9.3448 -37.167,-44.503 -75.7328,-92.24318 -5.1398,-6.36274 -14.6642,-18.10795 -21.1649,-26.10057 -6.5007,-7.99251 -14.668,-18.091 -18.1495,-22.44111 -3.4814,-4.35009 -6.546,-8.0872 -6.8104,-8.30473 -0.2645,-0.21747 -5.6439,-6.80199 -11.9546,-14.63215 -6.3105,-7.83019 -15.3668,-19.01419 -20.1251,-24.85341 -4.7583,-5.8392 -10.4045,-12.77958 -12.547,-15.42307 -2.1424,-2.64345 -7.6472,-9.43319 -12.2328,-15.0883 -4.5856,-5.65514 -12.9763,-16.00734 -18.6459,-23.00489 -5.6697,-6.99756 -17.9791,-22.12401 -27.3545,-33.61435 -9.3753,-11.49032 -20.783,-25.51842 -25.3509,-31.17354 -4.5677,-5.65512 -12.1842,-15.08689 -16.9255,-20.95953 -4.7415,-5.87263 -14.8666,-18.32192 -22.5002,-27.66511 -7.6339,-9.34321 -15.4812,-18.99437 -17.4388,-21.44705 -1.9575,-2.45268 -6.2752,-7.7992 -9.5948,-11.88116 -3.3198,-4.08197 -9.5484,-11.74678 -13.8413,-17.03292 -18.7075,-23.03553 -37.6315,-46.25443 -44.6291,-54.75831 -35.4131,-43.03534 -62.8897,-77.38244 -67.0383,-83.80111 -7.7611,-12.00793 -15.0699,-28.88243 -18.2861,-42.21938 -3.1587,-13.09823 -4.0776,-21.9201 -4.5556,-43.73812 -0.6948,-31.70853 1.1513,-45.16167 8.1871,-59.66234 3.034,-6.25296 4.7435,-8.59173 10.4546,-14.30285 8.5053,-8.50532 17.4439,-13.30849 29.7604,-15.99178 7.3178,-1.59431 10.0381,-1.72174 36.3826,-1.7046 25.7687,0.0167 29.3506,0.18109 37.7094,1.72975 34.226,6.34105 61.1295,23.52141 86.9736,55.54059 4.0377,5.00259 12.8043,15.85806 19.4816,24.12323 6.677,8.26517 20.4277,25.34916 30.5571,37.96443 18.0566,22.48808 36.2848,45.14992 68.0719,84.62907 8.7562,10.87522 22.6483,28.13718 30.871,38.35989 8.2228,10.2227 19.4953,24.18065 25.05,31.01764 5.5545,6.837 15.2011,18.7602 21.4369,26.49602 24.1257,29.92947 28.2487,35.03783 38.4829,47.67946 5.8107,7.17766 16.7222,20.7025 24.2475,30.05519 7.5255,9.3527 19.4346,24.12323 26.4645,32.82342 7.0299,8.70018 16.9068,20.9793 21.9485,27.28692 22.3131,27.91622 35.9198,42.28074 48.228,50.91391 8.3448,5.85337 22.7386,12.96901 37.2648,18.42212 24.54191,9.21309 40.17601,18.46692 54.52061,32.2709 24.411,23.49089 38.4875,50.98748 43.249,84.48097 1.6194,11.39055 1.5906,45.44225 -0.047,56.47535 -3.9505,26.6051 -16.773,48.9538 -36.9883,64.4677 -15.7454,12.0838 -32.7351,18.0235 -56.12181,19.6206 -13.2018,0.9015 -43.4279,0.8481 -57.5198,-0.1015 z m 73.08721,-317.38474 c -7.2102,-1.6541 -16.17971,-5.64654 -22.22561,-9.89255 -5.8535,-4.11109 -12.6032,-11.54658 -32.0078,-35.25976 -13.3396,-16.30145 -14.6556,-17.91659 -33.4878,-41.09967 -6.96,-8.56824 -15.5021,-19.07654 -18.9821,-23.3518 -33.8263,-41.55527 -39.8069,-49.07007 -43.4594,-54.60824 -11.1169,-16.85623 -16.101,-35.04011 -15.1683,-55.33943 0.8013,-17.43931 4.0172,-28.24929 14.5789,-49.00702 4.0863,-8.03095 8.9449,-17.28479 10.7972,-20.56407 1.8522,-3.27929 7.5609,-13.79249 12.6862,-23.3627 5.1253,-9.5702 10.1429,-18.89775 11.1505,-20.72789 1.0075,-1.83015 5.9864,-11.08398 11.0643,-20.56408 5.0778,-9.48009 11.5304,-21.50752 14.3392,-26.72763 8.4503,-15.70478 14.6913,-24.39403 24.7149,-34.41053 22.6046,-22.58846 47.6562,-32.42272 82.59251,-32.42272 20.7984,0 32.8317,3.77323 44.7088,14.01919 4.6835,4.0403 10.1678,12.20341 12.9325,19.24948 4.802,12.23805 4.5361,1.22758 4.52,187.16856 -0.016,184.97643 0.1782,176.72112 -4.4197,188.21395 -3.4107,8.52483 -7.3815,14.51134 -14.1187,21.28483 -7.4305,7.47051 -15.0523,12.24637 -24.7916,15.53458 -6.1077,2.06207 -8.2095,2.35901 -18.7429,2.64758 -8.3762,0.2295 -13.2801,1.8e-4 -16.6811,-0.78008 z" id="SvgjsPath1007"></path>
  </g>
</svg><style>@media (prefers-color-scheme: light) { :root { filter: none; } }
@media (prefers-color-scheme: dark) { :root { filter: none; } }
</style></svg>